<svg width="293" height="27" viewBox="0 0 293 27" fill="none" xmlns="http://www.w3.org/2000/svg">
<path d="M0.46875 1.57812H13.5156C15.1094 1.57812 16.4948 1.75 17.6719 2.09375C18.8594 2.42708 19.8438 2.89062 20.625 3.48438C21.4062 4.07812 21.9844 4.78646 22.3594 5.60938C22.7448 6.42188 22.9375 7.30208 22.9375 8.25C22.9375 9.80208 22.4479 11.1615 21.4688 12.3281C22.5938 12.9948 23.4323 13.8594 23.9844 14.9219C24.5365 15.9844 24.8125 17.1927 24.8125 18.5469C24.8125 19.6823 24.6198 20.7083 24.2344 21.625C23.8594 22.5417 23.2812 23.3281 22.5 23.9844C21.7292 24.6302 20.75 25.1302 19.5625 25.4844C18.3854 25.8281 16.9948 26 15.3906 26H0.46875V1.57812ZM15.4219 10.9531C15.849 10.9531 16.2656 10.9688 16.6719 11C17.3698 10.3333 17.7188 9.57292 17.7188 8.71875C17.7188 7.83333 17.3698 7.15104 16.6719 6.67188C15.9844 6.18229 14.974 5.9375 13.6406 5.9375H5.42188V10.9531H15.4219ZM15.5156 21.6875C16.849 21.6875 17.8594 21.401 18.5469 20.8281C19.2448 20.2552 19.5938 19.4479 19.5938 18.4062C19.5938 17.3646 19.2448 16.5521 18.5469 15.9688C17.8594 15.3854 16.849 15.0938 15.5156 15.0938H5.42188V21.6875H15.5156ZM29.2656 7.54688H33.875V16.5469C33.875 17.401 33.9688 18.1823 34.1562 18.8906C34.3438 19.5885 34.6615 20.1875 35.1094 20.6875C35.5677 21.1875 36.1719 21.5781 36.9219 21.8594C37.6823 22.1302 38.625 22.2656 39.75 22.2656C40.2812 22.2656 40.8177 22.2083 41.3594 22.0938C41.9115 21.9792 42.4375 21.8229 42.9375 21.625C43.4375 21.4167 43.901 21.1719 44.3281 20.8906C44.7656 20.6094 45.1406 20.3021 45.4531 19.9688V7.54688H50.0781V26H45.4531V24.4219C44.3177 25.099 43.1771 25.5833 42.0312 25.875C40.8854 26.1667 39.7969 26.3125 38.7656 26.3125C37.0781 26.3125 35.6302 26.1094 34.4219 25.7031C33.224 25.2969 32.2396 24.7083 31.4688 23.9375C30.7083 23.1562 30.151 22.2031 29.7969 21.0781C29.4427 19.9427 29.2656 18.651 29.2656 17.2031V7.54688ZM56.6875 20.3438C57.9375 21.0938 59.3125 21.6458 60.8125 22C62.3125 22.3542 63.849 22.5312 65.4219 22.5312C66.4844 22.5312 67.3698 22.4583 68.0781 22.3125C68.7865 22.1667 69.3542 21.9792 69.7812 21.75C70.2083 21.5208 70.5104 21.2604 70.6875 20.9688C70.8646 20.6771 70.9531 20.3802 70.9531 20.0781C70.9531 19.6406 70.7604 19.2656 70.375 18.9531C70 18.6406 69.375 18.4844 68.5 18.4844C68.0938 18.4844 67.6562 18.5104 67.1875 18.5625C66.7188 18.6146 66.224 18.6719 65.7031 18.7344C65.1927 18.7865 64.6562 18.8385 64.0938 18.8906C63.5417 18.9427 62.9792 18.9688 62.4062 18.9688C61.1562 18.9688 60.0885 18.8333 59.2031 18.5625C58.3281 18.2917 57.6146 17.9219 57.0625 17.4531C56.5104 16.9844 56.1094 16.4323 55.8594 15.7969C55.6094 15.151 55.4844 14.4583 55.4844 13.7188C55.4844 12.7812 55.7031 11.9167 56.1406 11.125C56.5781 10.3333 57.2031 9.65104 58.0156 9.07812C58.8281 8.49479 59.8073 8.04167 60.9531 7.71875C62.1094 7.39583 63.3958 7.23438 64.8125 7.23438C65.5521 7.23438 66.3229 7.28125 67.125 7.375C67.9375 7.45833 68.7344 7.57292 69.5156 7.71875C70.2969 7.86458 71.0469 8.03646 71.7656 8.23438C72.4844 8.42188 73.1198 8.625 73.6719 8.84375L72.2188 12.4375C71.0417 12 69.8646 11.6562 68.6875 11.4062C67.5208 11.1458 66.3177 11.0156 65.0781 11.0156C64.2135 11.0156 63.4792 11.0833 62.875 11.2188C62.2812 11.3438 61.7969 11.5156 61.4219 11.7344C61.0469 11.9427 60.7708 12.1875 60.5938 12.4688C60.4271 12.7396 60.3438 13.026 60.3438 13.3281C60.3438 13.5469 60.3854 13.7448 60.4688 13.9219C60.5625 14.099 60.7083 14.2552 60.9062 14.3906C61.1146 14.5156 61.3802 14.6146 61.7031 14.6875C62.0365 14.75 62.4427 14.7812 62.9219 14.7812C63.3594 14.7812 63.8229 14.7552 64.3125 14.7031C64.8021 14.651 65.3125 14.599 65.8438 14.5469C66.375 14.4844 66.9219 14.4271 67.4844 14.375C68.0573 14.3229 68.6406 14.2969 69.2344 14.2969C70.3385 14.2969 71.3021 14.4271 72.125 14.6875C72.9583 14.9479 73.6458 15.3125 74.1875 15.7812C74.7292 16.25 75.1354 16.8021 75.4062 17.4375C75.6771 18.0729 75.8125 18.7656 75.8125 19.5156C75.8125 20.4844 75.5885 21.3854 75.1406 22.2188C74.6927 23.0521 74.026 23.776 73.1406 24.3906C72.2552 24.9948 71.151 25.4688 69.8281 25.8125C68.5156 26.1562 66.9948 26.3281 65.2656 26.3281C64.2031 26.3281 63.1771 26.2604 62.1875 26.125C61.1979 26 60.2552 25.8281 59.3594 25.6094C58.4635 25.3802 57.6198 25.1146 56.8281 24.8125C56.0469 24.5104 55.3333 24.1875 54.6875 23.8438L56.6875 20.3438ZM82.4219 5.04688C81.9635 5.04688 81.5469 4.98438 81.1719 4.85938C80.8073 4.72396 80.4948 4.54688 80.2344 4.32812C79.974 4.09896 79.7708 3.83854 79.625 3.54688C79.4896 3.24479 79.4219 2.92708 79.4219 2.59375C79.4219 2.25 79.4896 1.93229 79.625 1.64062C79.7708 1.33854 79.974 1.07812 80.2344 0.859375C80.4948 0.640625 80.8073 0.46875 81.1719 0.34375C81.5469 0.208333 81.9635 0.140625 82.4219 0.140625C82.8906 0.140625 83.3073 0.208333 83.6719 0.34375C84.0469 0.46875 84.3646 0.640625 84.625 0.859375C84.8854 1.07812 85.0833 1.33854 85.2188 1.64062C85.3646 1.93229 85.4375 2.25 85.4375 2.59375C85.4375 2.92708 85.3646 3.24479 85.2188 3.54688C85.0833 3.83854 84.8854 4.09896 84.625 4.32812C84.3646 4.54688 84.0469 4.72396 83.6719 4.85938C83.3073 4.98438 82.8906 5.04688 82.4219 5.04688ZM80.1094 7.5625H84.7344V26H80.1094V7.5625ZM90.6719 7.5625H95.2969V9.125C96.526 8.42708 97.6979 7.9375 98.8125 7.65625C99.9375 7.375 101.036 7.23438 102.109 7.23438C103.516 7.23438 104.818 7.44271 106.016 7.85938C107.214 8.26562 108.25 8.875 109.125 9.6875C110 10.5 110.682 11.5156 111.172 12.7344C111.672 13.9427 111.922 15.3438 111.922 16.9375V26H107.312V17.6875C107.312 16.6771 107.167 15.776 106.875 14.9844C106.594 14.1823 106.182 13.5104 105.641 12.9688C105.109 12.4167 104.458 12 103.688 11.7188C102.927 11.4271 102.073 11.2812 101.125 11.2812C100.625 11.2812 100.109 11.3333 99.5781 11.4375C99.0573 11.5417 98.5417 11.6927 98.0312 11.8906C97.5312 12.0781 97.0469 12.3177 96.5781 12.6094C96.1094 12.8906 95.6823 13.2135 95.2969 13.5781V26H90.6719V7.5625ZM116.734 16.7188C116.734 15.4688 116.99 14.276 117.5 13.1406C118.01 11.9948 118.745 10.9844 119.703 10.1094C120.661 9.23438 121.833 8.53646 123.219 8.01562C124.615 7.49479 126.198 7.23438 127.969 7.23438C129.729 7.23438 131.312 7.5 132.719 8.03125C134.135 8.55208 135.333 9.27083 136.312 10.1875C137.302 11.1042 138.057 12.1823 138.578 13.4219C139.109 14.6615 139.375 15.9896 139.375 17.4062C139.375 17.5833 139.37 17.776 139.359 17.9844C139.359 18.1823 139.349 18.3646 139.328 18.5312H121.891C122.089 19.0833 122.406 19.5885 122.844 20.0469C123.292 20.5052 123.849 20.901 124.516 21.2344C125.182 21.5677 125.953 21.8281 126.828 22.0156C127.703 22.1927 128.672 22.2812 129.734 22.2812C130.797 22.2812 131.854 22.1719 132.906 21.9531C133.958 21.724 134.964 21.4375 135.922 21.0938L137.484 24.625C136.88 24.9062 136.266 25.1562 135.641 25.375C135.026 25.5833 134.38 25.7604 133.703 25.9062C133.036 26.0417 132.333 26.1458 131.594 26.2188C130.865 26.2917 130.094 26.3281 129.281 26.3281C127.208 26.3281 125.391 26.0781 123.828 25.5781C122.266 25.0781 120.958 24.3958 119.906 23.5312C118.854 22.6667 118.062 21.651 117.531 20.4844C117 19.3177 116.734 18.0625 116.734 16.7188ZM134.469 14.9219C134.302 14.4115 134.042 13.9375 133.688 13.5C133.344 13.0521 132.911 12.6667 132.391 12.3438C131.87 12.0104 131.266 11.75 130.578 11.5625C129.891 11.375 129.135 11.2812 128.312 11.2812C127.438 11.2812 126.641 11.3802 125.922 11.5781C125.203 11.776 124.573 12.0417 124.031 12.375C123.49 12.7083 123.036 13.0938 122.672 13.5312C122.318 13.9688 122.057 14.4323 121.891 14.9219H134.469ZM145.094 20.3438C146.344 21.0938 147.719 21.6458 149.219 22C150.719 22.3542 152.255 22.5312 153.828 22.5312C154.891 22.5312 155.776 22.4583 156.484 22.3125C157.193 22.1667 157.76 21.9792 158.188 21.75C158.615 21.5208 158.917 21.2604 159.094 20.9688C159.271 20.6771 159.359 20.3802 159.359 20.0781C159.359 19.6406 159.167 19.2656 158.781 18.9531C158.406 18.6406 157.781 18.4844 156.906 18.4844C156.5 18.4844 156.062 18.5104 155.594 18.5625C155.125 18.6146 154.63 18.6719 154.109 18.7344C153.599 18.7865 153.062 18.8385 152.5 18.8906C151.948 18.9427 151.385 18.9688 150.812 18.9688C149.562 18.9688 148.495 18.8333 147.609 18.5625C146.734 18.2917 146.021 17.9219 145.469 17.4531C144.917 16.9844 144.516 16.4323 144.266 15.7969C144.016 15.151 143.891 14.4583 143.891 13.7188C143.891 12.7812 144.109 11.9167 144.547 11.125C144.984 10.3333 145.609 9.65104 146.422 9.07812C147.234 8.49479 148.214 8.04167 149.359 7.71875C150.516 7.39583 151.802 7.23438 153.219 7.23438C153.958 7.23438 154.729 7.28125 155.531 7.375C156.344 7.45833 157.141 7.57292 157.922 7.71875C158.703 7.86458 159.453 8.03646 160.172 8.23438C160.891 8.42188 161.526 8.625 162.078 8.84375L160.625 12.4375C159.448 12 158.271 11.6562 157.094 11.4062C155.927 11.1458 154.724 11.0156 153.484 11.0156C152.62 11.0156 151.885 11.0833 151.281 11.2188C150.688 11.3438 150.203 11.5156 149.828 11.7344C149.453 11.9427 149.177 12.1875 149 12.4688C148.833 12.7396 148.75 13.026 148.75 13.3281C148.75 13.5469 148.792 13.7448 148.875 13.9219C148.969 14.099 149.115 14.2552 149.312 14.3906C149.521 14.5156 149.786 14.6146 150.109 14.6875C150.443 14.75 150.849 14.7812 151.328 14.7812C151.766 14.7812 152.229 14.7552 152.719 14.7031C153.208 14.651 153.719 14.599 154.25 14.5469C154.781 14.4844 155.328 14.4271 155.891 14.375C156.464 14.3229 157.047 14.2969 157.641 14.2969C158.745 14.2969 159.708 14.4271 160.531 14.6875C161.365 14.9479 162.052 15.3125 162.594 15.7812C163.135 16.25 163.542 16.8021 163.812 17.4375C164.083 18.0729 164.219 18.7656 164.219 19.5156C164.219 20.4844 163.995 21.3854 163.547 22.2188C163.099 23.0521 162.432 23.776 161.547 24.3906C160.661 24.9948 159.557 25.4688 158.234 25.8125C156.922 26.1562 155.401 26.3281 153.672 26.3281C152.609 26.3281 151.583 26.2604 150.594 26.125C149.604 26 148.661 25.8281 147.766 25.6094C146.87 25.3802 146.026 25.1146 145.234 24.8125C144.453 24.5104 143.74 24.1875 143.094 23.8438L145.094 20.3438ZM169.125 20.3438C170.375 21.0938 171.75 21.6458 173.25 22C174.75 22.3542 176.286 22.5312 177.859 22.5312C178.922 22.5312 179.807 22.4583 180.516 22.3125C181.224 22.1667 181.792 21.9792 182.219 21.75C182.646 21.5208 182.948 21.2604 183.125 20.9688C183.302 20.6771 183.391 20.3802 183.391 20.0781C183.391 19.6406 183.198 19.2656 182.812 18.9531C182.438 18.6406 181.812 18.4844 180.938 18.4844C180.531 18.4844 180.094 18.5104 179.625 18.5625C179.156 18.6146 178.661 18.6719 178.141 18.7344C177.63 18.7865 177.094 18.8385 176.531 18.8906C175.979 18.9427 175.417 18.9688 174.844 18.9688C173.594 18.9688 172.526 18.8333 171.641 18.5625C170.766 18.2917 170.052 17.9219 169.5 17.4531C168.948 16.9844 168.547 16.4323 168.297 15.7969C168.047 15.151 167.922 14.4583 167.922 13.7188C167.922 12.7812 168.141 11.9167 168.578 11.125C169.016 10.3333 169.641 9.65104 170.453 9.07812C171.266 8.49479 172.245 8.04167 173.391 7.71875C174.547 7.39583 175.833 7.23438 177.25 7.23438C177.99 7.23438 178.76 7.28125 179.562 7.375C180.375 7.45833 181.172 7.57292 181.953 7.71875C182.734 7.86458 183.484 8.03646 184.203 8.23438C184.922 8.42188 185.557 8.625 186.109 8.84375L184.656 12.4375C183.479 12 182.302 11.6562 181.125 11.4062C179.958 11.1458 178.755 11.0156 177.516 11.0156C176.651 11.0156 175.917 11.0833 175.312 11.2188C174.719 11.3438 174.234 11.5156 173.859 11.7344C173.484 11.9427 173.208 12.1875 173.031 12.4688C172.865 12.7396 172.781 13.026 172.781 13.3281C172.781 13.5469 172.823 13.7448 172.906 13.9219C173 14.099 173.146 14.2552 173.344 14.3906C173.552 14.5156 173.818 14.6146 174.141 14.6875C174.474 14.75 174.88 14.7812 175.359 14.7812C175.797 14.7812 176.26 14.7552 176.75 14.7031C177.24 14.651 177.75 14.599 178.281 14.5469C178.812 14.4844 179.359 14.4271 179.922 14.375C180.495 14.3229 181.078 14.2969 181.672 14.2969C182.776 14.2969 183.74 14.4271 184.562 14.6875C185.396 14.9479 186.083 15.3125 186.625 15.7812C187.167 16.25 187.573 16.8021 187.844 17.4375C188.115 18.0729 188.25 18.7656 188.25 19.5156C188.25 20.4844 188.026 21.3854 187.578 22.2188C187.13 23.0521 186.464 23.776 185.578 24.3906C184.693 24.9948 183.589 25.4688 182.266 25.8125C180.953 26.1562 179.432 26.3281 177.703 26.3281C176.641 26.3281 175.615 26.2604 174.625 26.125C173.635 26 172.693 25.8281 171.797 25.6094C170.901 25.3802 170.057 25.1146 169.266 24.8125C168.484 24.5104 167.771 24.1875 167.125 23.8438L169.125 20.3438ZM193 1.57812H205.875C207.75 1.57812 209.375 1.78125 210.75 2.1875C212.125 2.59375 213.266 3.18229 214.172 3.95312C215.078 4.71354 215.75 5.64583 216.188 6.75C216.635 7.85417 216.859 9.09896 216.859 10.4844C216.859 11.7865 216.641 12.9896 216.203 14.0938C215.766 15.1979 215.094 16.1562 214.188 16.9688C213.292 17.7708 212.156 18.401 210.781 18.8594C209.406 19.3073 207.781 19.5312 205.906 19.5312L197.953 19.5156V26H193V1.57812ZM206 15.2344C206.938 15.2344 207.755 15.125 208.453 14.9062C209.161 14.6771 209.75 14.3594 210.219 13.9531C210.698 13.5365 211.052 13.0365 211.281 12.4531C211.521 11.8594 211.641 11.2031 211.641 10.4844C211.641 9.03646 211.167 7.91146 210.219 7.10938C209.281 6.29688 207.875 5.89062 206 5.89062H197.953V15.2344H206ZM220.828 20.1875C220.828 19.3021 221.021 18.4948 221.406 17.7656C221.792 17.0365 222.37 16.4115 223.141 15.8906C223.911 15.3594 224.87 14.9531 226.016 14.6719C227.172 14.3802 228.516 14.2344 230.047 14.2344C231.182 14.2344 232.375 14.3177 233.625 14.4844C234.885 14.651 236.182 14.9062 237.516 15.25C237.464 14.6667 237.286 14.1302 236.984 13.6406C236.682 13.1406 236.26 12.7135 235.719 12.3594C235.188 11.9948 234.542 11.7135 233.781 11.5156C233.031 11.3177 232.177 11.2188 231.219 11.2188C230.698 11.2188 230.125 11.25 229.5 11.3125C228.875 11.375 228.229 11.4688 227.562 11.5938C226.896 11.7188 226.234 11.875 225.578 12.0625C224.932 12.25 224.328 12.474 223.766 12.7344L222.359 8.9375C223.057 8.6875 223.802 8.45833 224.594 8.25C225.396 8.04167 226.214 7.86458 227.047 7.71875C227.88 7.5625 228.714 7.44271 229.547 7.35938C230.38 7.27604 231.188 7.23438 231.969 7.23438C235.417 7.23438 237.979 8.11458 239.656 9.875C241.333 11.6354 242.172 14.3333 242.172 17.9688V26H237.547V24.2656C237.068 24.5469 236.542 24.8125 235.969 25.0625C235.406 25.3125 234.792 25.5312 234.125 25.7188C233.458 25.9062 232.74 26.0521 231.969 26.1562C231.208 26.2708 230.401 26.3281 229.547 26.3281C228.109 26.3281 226.844 26.1719 225.75 25.8594C224.667 25.5469 223.76 25.1146 223.031 24.5625C222.302 24.0104 221.75 23.3646 221.375 22.625C221.01 21.875 220.828 21.0625 220.828 20.1875ZM225.703 20.0312C225.703 20.3333 225.781 20.625 225.938 20.9062C226.094 21.1771 226.344 21.4219 226.688 21.6406C227.031 21.849 227.469 22.0208 228 22.1562C228.542 22.2812 229.193 22.3438 229.953 22.3438C230.766 22.3438 231.552 22.2708 232.312 22.125C233.073 21.9792 233.781 21.7865 234.438 21.5469C235.094 21.3073 235.688 21.0312 236.219 20.7188C236.75 20.4062 237.193 20.0833 237.547 19.75V18.9375C236.839 18.7396 236.135 18.5729 235.438 18.4375C234.75 18.3021 234.089 18.1979 233.453 18.125C232.828 18.0417 232.234 17.9844 231.672 17.9531C231.12 17.9219 230.635 17.9062 230.219 17.9062C229.354 17.9062 228.635 17.9635 228.062 18.0781C227.49 18.1927 227.026 18.349 226.672 18.5469C226.318 18.7344 226.068 18.9583 225.922 19.2188C225.776 19.4792 225.703 19.75 225.703 20.0312ZM249.031 20.3438C250.281 21.0938 251.656 21.6458 253.156 22C254.656 22.3542 256.193 22.5312 257.766 22.5312C258.828 22.5312 259.714 22.4583 260.422 22.3125C261.13 22.1667 261.698 21.9792 262.125 21.75C262.552 21.5208 262.854 21.2604 263.031 20.9688C263.208 20.6771 263.297 20.3802 263.297 20.0781C263.297 19.6406 263.104 19.2656 262.719 18.9531C262.344 18.6406 261.719 18.4844 260.844 18.4844C260.438 18.4844 260 18.5104 259.531 18.5625C259.062 18.6146 258.568 18.6719 258.047 18.7344C257.536 18.7865 257 18.8385 256.438 18.8906C255.885 18.9427 255.323 18.9688 254.75 18.9688C253.5 18.9688 252.432 18.8333 251.547 18.5625C250.672 18.2917 249.958 17.9219 249.406 17.4531C248.854 16.9844 248.453 16.4323 248.203 15.7969C247.953 15.151 247.828 14.4583 247.828 13.7188C247.828 12.7812 248.047 11.9167 248.484 11.125C248.922 10.3333 249.547 9.65104 250.359 9.07812C251.172 8.49479 252.151 8.04167 253.297 7.71875C254.453 7.39583 255.74 7.23438 257.156 7.23438C257.896 7.23438 258.667 7.28125 259.469 7.375C260.281 7.45833 261.078 7.57292 261.859 7.71875C262.641 7.86458 263.391 8.03646 264.109 8.23438C264.828 8.42188 265.464 8.625 266.016 8.84375L264.562 12.4375C263.385 12 262.208 11.6562 261.031 11.4062C259.865 11.1458 258.661 11.0156 257.422 11.0156C256.557 11.0156 255.823 11.0833 255.219 11.2188C254.625 11.3438 254.141 11.5156 253.766 11.7344C253.391 11.9427 253.115 12.1875 252.938 12.4688C252.771 12.7396 252.688 13.026 252.688 13.3281C252.688 13.5469 252.729 13.7448 252.812 13.9219C252.906 14.099 253.052 14.2552 253.25 14.3906C253.458 14.5156 253.724 14.6146 254.047 14.6875C254.38 14.75 254.786 14.7812 255.266 14.7812C255.703 14.7812 256.167 14.7552 256.656 14.7031C257.146 14.651 257.656 14.599 258.188 14.5469C258.719 14.4844 259.266 14.4271 259.828 14.375C260.401 14.3229 260.984 14.2969 261.578 14.2969C262.682 14.2969 263.646 14.4271 264.469 14.6875C265.302 14.9479 265.99 15.3125 266.531 15.7812C267.073 16.25 267.479 16.8021 267.75 17.4375C268.021 18.0729 268.156 18.7656 268.156 19.5156C268.156 20.4844 267.932 21.3854 267.484 22.2188C267.036 23.0521 266.37 23.776 265.484 24.3906C264.599 24.9948 263.495 25.4688 262.172 25.8125C260.859 26.1562 259.339 26.3281 257.609 26.3281C256.547 26.3281 255.521 26.2604 254.531 26.125C253.542 26 252.599 25.8281 251.703 25.6094C250.807 25.3802 249.964 25.1146 249.172 24.8125C248.391 24.5104 247.677 24.1875 247.031 23.8438L249.031 20.3438ZM273.062 20.3438C274.312 21.0938 275.688 21.6458 277.188 22C278.688 22.3542 280.224 22.5312 281.797 22.5312C282.859 22.5312 283.745 22.4583 284.453 22.3125C285.161 22.1667 285.729 21.9792 286.156 21.75C286.583 21.5208 286.885 21.2604 287.062 20.9688C287.24 20.6771 287.328 20.3802 287.328 20.0781C287.328 19.6406 287.135 19.2656 286.75 18.9531C286.375 18.6406 285.75 18.4844 284.875 18.4844C284.469 18.4844 284.031 18.5104 283.562 18.5625C283.094 18.6146 282.599 18.6719 282.078 18.7344C281.568 18.7865 281.031 18.8385 280.469 18.8906C279.917 18.9427 279.354 18.9688 278.781 18.9688C277.531 18.9688 276.464 18.8333 275.578 18.5625C274.703 18.2917 273.99 17.9219 273.438 17.4531C272.885 16.9844 272.484 16.4323 272.234 15.7969C271.984 15.151 271.859 14.4583 271.859 13.7188C271.859 12.7812 272.078 11.9167 272.516 11.125C272.953 10.3333 273.578 9.65104 274.391 9.07812C275.203 8.49479 276.182 8.04167 277.328 7.71875C278.484 7.39583 279.771 7.23438 281.188 7.23438C281.927 7.23438 282.698 7.28125 283.5 7.375C284.312 7.45833 285.109 7.57292 285.891 7.71875C286.672 7.86458 287.422 8.03646 288.141 8.23438C288.859 8.42188 289.495 8.625 290.047 8.84375L288.594 12.4375C287.417 12 286.24 11.6562 285.062 11.4062C283.896 11.1458 282.693 11.0156 281.453 11.0156C280.589 11.0156 279.854 11.0833 279.25 11.2188C278.656 11.3438 278.172 11.5156 277.797 11.7344C277.422 11.9427 277.146 12.1875 276.969 12.4688C276.802 12.7396 276.719 13.026 276.719 13.3281C276.719 13.5469 276.76 13.7448 276.844 13.9219C276.938 14.099 277.083 14.2552 277.281 14.3906C277.49 14.5156 277.755 14.6146 278.078 14.6875C278.411 14.75 278.818 14.7812 279.297 14.7812C279.734 14.7812 280.198 14.7552 280.688 14.7031C281.177 14.651 281.688 14.599 282.219 14.5469C282.75 14.4844 283.297 14.4271 283.859 14.375C284.432 14.3229 285.016 14.2969 285.609 14.2969C286.714 14.2969 287.677 14.4271 288.5 14.6875C289.333 14.9479 290.021 15.3125 290.562 15.7812C291.104 16.25 291.51 16.8021 291.781 17.4375C292.052 18.0729 292.188 18.7656 292.188 19.5156C292.188 20.4844 291.964 21.3854 291.516 22.2188C291.068 23.0521 290.401 23.776 289.516 24.3906C288.63 24.9948 287.526 25.4688 286.203 25.8125C284.891 26.1562 283.37 26.3281 281.641 26.3281C280.578 26.3281 279.552 26.2604 278.562 26.125C277.573 26 276.63 25.8281 275.734 25.6094C274.839 25.3802 273.995 25.1146 273.203 24.8125C272.422 24.5104 271.708 24.1875 271.062 23.8438L273.062 20.3438Z" fill="#1C1C1C"/>
</svg>
