<svg width="24" height="25" viewBox="0 0 24 25" fill="none" xmlns="http://www.w3.org/2000/svg">
<g clip-path="url(#clip0_434_1181)">
<path d="M15.0499 5.27832C16.0267 5.46889 16.9243 5.94658 17.628 6.65026C18.3317 7.35393 18.8094 8.25159 18.9999 9.22832M15.0499 1.27832C17.0792 1.50376 18.9715 2.4125 20.4162 3.85533C21.8608 5.29816 22.7719 7.18933 22.9999 9.21832M21.9999 17.1983V20.1983C22.0011 20.4768 21.944 20.7525 21.8324 21.0077C21.7209 21.2628 21.5572 21.4919 21.352 21.6802C21.1468 21.8685 20.9045 22.0118 20.6407 22.101C20.3769 22.1902 20.0973 22.2234 19.8199 22.1983C16.7428 21.864 13.7869 20.8125 11.1899 19.1283C8.77376 17.593 6.72527 15.5445 5.18993 13.1283C3.49991 10.5195 2.44818 7.54931 2.11993 4.45832C2.09494 4.18179 2.12781 3.90308 2.21643 3.63994C2.30506 3.37681 2.4475 3.13501 2.6347 2.92994C2.82189 2.72487 3.04974 2.56103 3.30372 2.44884C3.55771 2.33665 3.83227 2.27858 4.10993 2.27832H7.10993C7.59524 2.27354 8.06572 2.4454 8.43369 2.76185C8.80166 3.07831 9.04201 3.51777 9.10993 3.99832C9.23656 4.95839 9.47138 5.90105 9.80993 6.80832C9.94448 7.16624 9.9736 7.55524 9.89384 7.9292C9.81408 8.30317 9.6288 8.64643 9.35993 8.91832L8.08993 10.1883C9.51349 12.6919 11.5864 14.7648 14.0899 16.1883L15.3599 14.9183C15.6318 14.6495 15.9751 14.4642 16.3491 14.3844C16.723 14.3047 17.112 14.3338 17.4699 14.4683C18.3772 14.8069 19.3199 15.0417 20.2799 15.1683C20.7657 15.2369 21.2093 15.4815 21.5265 15.8558C21.8436 16.2301 22.0121 16.7079 21.9999 17.1983Z" stroke="#0F172A" stroke-width="2" stroke-linecap="round" stroke-linejoin="round"/>
</g>
<defs>
<clipPath id="clip0_434_1181">
<rect width="24" height="24" fill="white" transform="translate(0 0.27832)"/>
</clipPath>
</defs>
</svg>
